<?xml version="1.0"?><svg fill="#4a90e2" xmlns="http://www.w3.org/2000/svg"  viewBox="0 0 50 50" width="100px" height="100px">    <path d="M 25 1 C 24.7825 1 24.565859 1.0709375 24.380859 1.2109375 L 1.3808594 19.210938 C 0.95085938 19.550937 0.8709375 20.179141 1.2109375 20.619141 C 1.5509375 21.049141 2.1791406 21.129063 2.6191406 20.789062 L 4 19.699219 L 4 46 C 4 46.55 4.45 47 5 47 L 45 47 C 45.55 47 46 46.55 46 46 L 46 19.699219 L 47.380859 20.789062 C 47.570859 20.929063 47.78 21 48 21 C 48.3 21 48.589063 20.869141 48.789062 20.619141 C 49.129063 20.179141 49.049141 19.550937 48.619141 19.210938 L 25.619141 1.2109375 C 25.434141 1.0709375 25.2175 1 25 1 z M 18.480469 19 L 31.519531 19 C 32.509531 19 33.729062 19.759297 34.289062 20.779297 L 37.859375 28 L 40 28 C 40.55 28 41 28.45 41 29 L 41 31 C 41 31.55 40.55 32 40 32 L 38.859375 32 C 38.999375 32.53 39 32.85 39 33 L 39 44 C 39 44.55 38.55 45 38 45 L 35 45 C 34.45 45 34 44.55 34 44 L 34 41 L 16 41 L 16 44 C 16 44.55 15.55 45 15 45 L 12 45 C 11.45 45 11 44.55 11 44 L 11 33 C 11 32.85 11.000625 32.53 11.140625 32 L 10 32 C 9.45 32 9 31.55 9 31 L 9 29 C 9 28.45 9.45 28 10 28 L 13.140625 28 L 15.710938 20.779297 C 16.270937 19.759297 17.490469 19 18.480469 19 z M 19.070312 23 L 16 30 L 34 30 L 30.919922 23 L 19.070312 23 z M 17 34 C 15.9 34 15 34.9 15 36 C 15 37.1 15.9 38 17 38 C 18.1 38 19 37.1 19 36 C 19 34.9 18.1 34 17 34 z M 33 34 C 31.9 34 31 34.9 31 36 C 31 37.1 31.9 38 33 38 C 34.1 38 35 37.1 35 36 C 35 34.9 34.1 34 33 34 z"/></svg>